<svg width="272" height="266" viewBox="0 0 272 266" fill="none" xmlns="http://www.w3.org/2000/svg">
<path d="M135.019 0.858276C149.779 1.12484 160.483 6.49508 168.814 19.0272C178.931 34.2443 173.865 49.7493 170.256 66.0915C172.549 64.0633 174.267 61.5593 176.148 59.173C185.026 48.0695 191.931 40.1113 206.849 38.1595C247.175 32.8988 268.347 83.6988 235.372 108.146C232.281 110.438 215.442 118.773 214.784 119.61C215.089 120.069 215.847 120.067 216.505 120.118C227.19 120.926 236.47 119.228 246.654 123.67C278.1 137.355 278.592 182.094 246.47 195.531C227.672 203.394 215.198 194.556 198.615 187.599C199.712 190.154 201.937 193.054 203.669 195.24C209.472 202.56 213.976 207.823 216.369 217.251C218.988 227.571 217.128 237.018 211.92 246.145C207.013 254.747 197.513 261.67 187.98 264.01C177.723 266.525 167.236 264.8 158.309 259.395C146.658 252.337 142.033 243.23 139.237 230.274C138.569 227.179 137.096 221.97 136.212 218.74C136.019 218.625 135.854 218.526 135.715 218.443C134.864 220.439 134.089 224.142 133.577 226.381C131.67 234.722 129.701 242.909 124.283 249.807C118.078 257.708 108.466 263.532 98.4495 264.81C87.654 266.187 77.1285 263.19 68.6157 256.305C60.6257 249.728 55.553 240.265 54.499 229.971C52.6207 211.467 63.2355 200.67 73.9692 187.56C60.5837 191.709 53.4715 199.322 37.778 198.381C16.592 197.111 -0.59295 178.329 1.20816 156.73C1.82692 148.982 4.71318 141.588 9.50688 135.47C26.8482 113.594 53.024 123.172 57.1962 119.641C56.3667 118.738 52.249 116.933 50.9225 116.234C43.1502 112.138 36.745 109.751 30.6587 103.153C23.4499 95.356 19.6645 84.9965 20.1483 74.3885C21.7164 38.9708 67.503 24.6737 89.4345 52.1278C90.1092 52.9728 91.7947 54.7988 92.5375 55.5963C94.3417 57.5338 98.5592 64.6368 100.952 64.7413C101.122 63.447 99.2737 55.854 98.8245 54.2538C91.1907 27.0723 105.872 2.9342 135.019 0.858276Z" fill="#F1E6C9"/>
<path d="M132.874 4.58021C138.304 4.33584 141.38 4.59559 146.561 6.65899C156.102 10.2389 164.181 20.6673 164.571 30.9915C164.889 39.406 161.81 50.0673 160.131 58.5025L149.988 108.886C151.883 106.216 154.102 103.801 156.194 101.272L170.634 84.052L186.483 65.0945C191.866 58.6313 197.583 50.3915 205.261 46.7963C212.558 43.3793 219.891 42.9958 227.464 45.7318C234.623 48.2858 240.475 53.5773 243.735 60.4435C247.073 67.563 247.4 75.7273 244.643 83.091C240.242 94.9063 231.154 98.415 220.75 103.682L205.363 111.574C193.31 117.727 179.63 125.217 167.452 130.795C172.506 131.235 179.226 131.227 184.445 131.351L211.915 131.966L229.129 132.371C233.184 132.467 238.56 132.467 242.46 133.045C244.741 133.366 246.972 133.972 249.101 134.848C256.19 137.859 261.8 143.553 264.708 150.685C267.47 157.423 267.423 165.831 264.58 172.546C261.603 179.667 255.91 185.309 248.762 188.222C243.565 190.299 237.882 190.846 232.384 189.8C227.067 188.735 218.491 184.308 213.067 181.91L171.244 163.039C167.907 161.542 164.668 159.894 161.317 158.451C165.208 163.11 170.637 170.686 174.311 175.626L188.829 194.791L198.557 207.597C200.873 210.607 203.186 213.51 205.278 216.686C211.73 226.484 211.721 238.301 205.443 248.249C201.43 254.585 195.038 259.04 187.705 260.612C180.045 262.35 172.007 260.945 165.39 256.715C152.43 248.428 150.764 229.472 147.139 215.368L140.053 187.569C138.86 182.931 137.439 178.218 136.404 173.563C136.271 172.848 136.261 172.613 135.835 172.006C135.069 172.241 132.811 183 132.316 184.907L122.072 224.715C120.729 229.874 119.34 236.817 117.696 241.705C116.883 244.164 115.74 246.501 114.298 248.651C105.429 261.773 87.1248 265.413 74.056 256.47C67.7013 252.108 63.374 245.368 62.0523 237.774C61.0258 232.074 61.6893 226.198 63.9613 220.87C65.99 216.209 73.8655 206.479 77.3083 201.939L100.559 171.256C103.734 167.029 107.275 162.697 110.247 158.403C98.6658 163.83 87.0288 169.136 75.3373 174.322C68.9455 177.284 62.5275 180.189 56.084 183.037C50.4645 185.572 43.2063 189.405 37.1795 190.167C29.5743 191.052 21.9277 188.892 15.9088 184.16C9.8007 179.416 5.88103 172.395 5.04813 164.706C4.19363 157.065 6.39648 149.396 11.1759 143.373C14.7589 138.882 19.6204 135.583 25.1178 133.913C30.8448 132.234 41.0093 132.385 47.2108 132.235L84.3743 131.413C89.6918 131.288 98.7705 131.331 103.76 130.752C101.521 129.336 95.3698 126.493 92.649 125.114L58.8125 107.76C51.962 104.273 43.6548 100.522 37.3243 96.358C21.3818 85.8708 21.144 61.4548 36.1903 49.9905C42.1835 45.424 49.9608 43.1725 57.4925 44.124C70.0898 45.7113 75.5845 53.7553 83.0515 62.658C87.6003 67.9918 92.1003 73.3668 96.551 78.7825C104.599 88.5163 113.974 99.0055 121.69 108.873C119.376 100.18 117.387 87.4885 115.461 78.3205C113.524 69.2655 111.687 60.1893 109.95 51.0938C109.006 46.3943 107.741 40.9068 107.06 36.2425C106.078 29.508 108.917 20.8737 113.117 15.5291C118.004 9.42081 125.104 5.48656 132.874 4.58021Z" fill="#E7778F"/>
<path d="M134.599 108.869C150.273 108.129 163.603 120.185 164.436 135.854C165.269 151.524 153.292 164.924 137.627 165.85C121.832 166.783 108.294 154.683 107.454 138.882C106.614 123.082 118.794 109.615 134.599 108.869Z" fill="#F1E6C9"/>
</svg>
